<?xml version="1.0" encoding="UTF-8" standalone="no"?>
<!DOCTYPE svg PUBLIC "-//W3C//DTD SVG 1.1//EN" "http://www.w3.org/Graphics/SVG/1.1/DTD/svg11.dtd">
<svg width="100%" height="100%" viewBox="0 0 120 120" version="1.1" xmlns="http://www.w3.org/2000/svg" xmlns:xlink="http://www.w3.org/1999/xlink" xml:space="preserve" xmlns:serif="http://www.serif.com/" fill="#a1a1aa" stroke="#a1a1aa" stroke-width="1pt" style="fill-rule:evenodd;clip-rule:evenodd;stroke-linejoin:round;stroke-miterlimit:2;">
    <g transform="matrix(1.903226,0,0,1.903226,-0.903226,-1.354839)">
        <path d="M32,1.5C14.617,1.5 1,6.771 1,13.5L1,26.5C1,30.251 6.987,33.838 15.397,35.76C16.629,36.84 18.237,37.5 20,37.5L23,37.5L23,38.325C23,40.076 24.424,41.5 26.175,41.5L31,41.5L31,42.551C25.954,43.055 22,47.324 22,52.5C22,58.014 26.486,62.5 32,62.5C37.514,62.5 42,58.014 42,52.5C42,47.324 38.046,43.054 33,42.551L33,41.5L36.935,41.5C39.176,41.5 41,39.676 41,37.435L41,37.014C53.456,35.667 63,31.507 63,26.501L63,13.501C63,6.771 49.383,1.5 32,1.5ZM40,52.5C40,56.911 36.411,60.5 32,60.5C27.589,60.5 24,56.911 24,52.5C24,48.089 27.589,44.5 32,44.5C36.411,44.5 40,48.089 40,52.5ZM32,3.5C49.347,3.5 61,8.671 61,13.5C60.847,16.051 58.371,17.646 56.338,18.79C52.597,15.238 47.525,13.573 42.559,12.52C35.829,11.167 28.172,11.167 21.442,12.52C16.476,13.573 11.403,15.239 7.663,18.79C5.774,17.741 3.709,16.383 3.085,14.206C3.03,13.97 3,13.734 3,13.5C3,8.671 14.653,3.5 32,3.5ZM53.6,20.028C51.889,20.709 50.124,21.249 48.335,21.704C45.979,22.292 43.417,22.723 40.958,22.987C40.801,22.089 40.383,21.242 39.714,20.615C38.965,19.916 37.964,19.504 36.934,19.5L26.174,19.5C24.424,19.5 23,20.924 23,22.674L23,22.971C19.613,22.593 16.536,22.002 13.735,21.175C12.331,20.753 10.952,20.277 9.609,19.705L9.61,19.704C13.04,16.804 17.488,15.405 21.837,14.48C28.308,13.179 35.694,13.179 42.165,14.48C46.134,15.313 50.127,16.565 53.435,18.941C53.775,19.19 54.098,19.443 54.393,19.704C54.133,19.823 53.866,19.923 53.6,20.028ZM3,26.236L3,17.873C4.296,19.147 5.8,20.124 7.443,20.939C10.545,22.376 13.81,23.393 17.171,24.098C15.695,24.77 14.446,25.933 13.734,27.397C12.826,29.177 12.762,31.411 13.552,33.233C7.333,31.493 3,28.721 3,26.236ZM20,35.5C18.651,35.5 17.43,34.957 16.529,34.086C15.568,33.138 15.023,31.86 15,30.5C15,27.743 17.243,25.5 20,25.5L23,25.5L23,35.5L20,35.5ZM39,37.435C39,38.574 38.073,39.5 36.935,39.5L26.175,39.5C25.527,39.5 25,38.973 25,38.325L25,22.674C25,22.027 25.527,21.5 26.175,21.5L36.935,21.5C37.902,21.494 38.79,22.234 38.962,23.184C37.925,23.276 36.892,23.337 35.844,23.39C34.56,23.45 33.263,23.487 31.996,23.5L28,23.5C27.447,23.5 27,23.947 27,24.5L27,28.5C27,29.053 27.447,29.5 28,29.5L32,29.5C32.552,29.5 33,29.948 33,30.5C33,31.052 32.552,31.5 32,31.5L28,31.5C27.447,31.5 27,31.947 27,32.5L27,36.5C27,37.053 27.447,37.5 28,37.5L32,37.5C34.287,37.503 36.697,37.379 39,37.213L39,37.435ZM61,17.873L61,26.233C61,29.887 51.583,33.995 39.904,35.124C37.313,35.374 34.598,35.5 32,35.5L29,35.5L29,33.5L32,33.5C33.654,33.5 35,32.154 35,30.5C35,28.846 33.654,27.5 32,27.5L29,27.5L29,25.5L32,25.5C34.789,25.466 37.381,25.353 40.096,25.096C46.527,24.479 51.91,23.118 56.557,20.94C58.199,20.125 59.704,19.148 61,17.873Z" style="fill-rule:nonzero;"/>
    </g>
    <g transform="matrix(1.903226,0,0,1.903226,-0.903226,-1.354839)">
        <path d="M32,51C29.425,51 28,53.365 28,55C27.997,55.356 27.963,55.994 28.37,56.749C28.987,57.861 30.31,58.5 32,58.5C33.69,58.5 35.013,57.861 35.63,56.748C36.021,56.04 36.007,55.351 36,55C36,53.365 34.575,51 32,51ZM33.88,55.778C33.509,56.448 32.348,56.5 32,56.5C31.652,56.5 30.491,56.448 30.12,55.779C29.969,55.497 30,55 30,55C30,54.431 30.595,53 32,53C33.405,53 34,54.431 34.001,55.099C34.006,55.286 34.011,55.543 33.88,55.778Z" style="fill-rule:nonzero;"/>
    </g>
    <g transform="matrix(1.903226,0,0,1.903226,-0.903226,-1.354839)">
        <circle cx="51.5" cy="27.8" r="1.5"/>
    </g>
    <g transform="matrix(1.903226,0,0,1.903226,-0.903226,-1.354839)">
        <circle cx="45.5" cy="29.1" r="1.5"/>
    </g>
    <g transform="matrix(1.903226,0,0,1.903226,-0.903226,-1.354839)">
        <circle cx="39.5" cy="30.1" r="1.5"/>
    </g>
    <g transform="matrix(1.903226,0,0,1.903226,-0.903226,-1.354839)">
        <circle cx="27" cy="51" r="1.5"/>
    </g>
    <g transform="matrix(1.903226,0,0,1.903226,-0.903226,-1.354839)">
        <circle cx="30" cy="48.5" r="1.5"/>
    </g>
    <g transform="matrix(1.903226,0,0,1.903226,-0.903226,-1.354839)">
        <circle cx="37" cy="51" r="1.5"/>
    </g>
    <g transform="matrix(1.903226,0,0,1.903226,-0.903226,-1.354839)">
        <circle cx="34" cy="48.5" r="1.5"/>
    </g>
</svg>
