<?xml version="1.0" encoding="UTF-8" standalone="no"?>
<!DOCTYPE svg PUBLIC "-//W3C//DTD SVG 1.1//EN" "http://www.w3.org/Graphics/SVG/1.1/DTD/svg11.dtd">
<svg width="100%" height="100%" viewBox="0 0 800 800" version="1.1" xmlns="http://www.w3.org/2000/svg" xmlns:xlink="http://www.w3.org/1999/xlink" xml:space="preserve" xmlns:serif="http://www.serif.com/" style="fill-rule:evenodd;clip-rule:evenodd;stroke-linejoin:round;stroke-miterlimit:2;">
    <g transform="matrix(1.669726,0,0,1.669726,-263.919537,-12.26638)">
        <g transform="matrix(0.655852,0,0,0.655852,-256.843219,-210.16114)">
            <path d="M1111.19,572.779C1109.39,587.702 1106.58,605.893 1104.45,619.07C1103.34,625.934 1094.97,628.958 1089.9,624.201C1050.78,587.494 996.826,588.167 996.826,588.167C996.826,588.167 942.835,587.494 903.74,624.201C898.671,628.96 890.302,625.94 889.186,619.078C887.042,605.899 884.221,587.705 882.419,572.779C879.142,545.965 891.342,531.396 891.342,531.396C891.342,531.396 890.523,408.065 914.06,372.373C937.596,336.635 955.443,455.094 955.443,455.094C955.443,455.094 978.161,453.501 996.826,453.501C1015.45,453.501 1038.209,455.094 1038.209,455.094C1038.209,455.094 1056.06,336.635 1079.55,372.373C1103.08,408.065 1102.27,531.396 1102.27,531.396C1102.27,531.396 1114.47,545.965 1111.19,572.779Z" style="fill:rgb(196,92,38);fill-rule:nonzero;"/>
        </g>
        <g transform="matrix(0.655852,0,0,0.655852,-256.843219,-210.16114)">
            <path d="M1241.15,964.552C1240.27,978.689 1227.83,989.357 1213.67,989.357L1131.7,989.357C1108.36,989.357 1085.84,996.977 1066.57,1010.15C1055.88,1017.46 1044.449,1023.12 1032.49,1026.87C1019,1031.09 1004.4,1024.661 998.389,1011.86C968.69,948.642 1002.21,881.658 1044.569,867.484C1095.47,850.411 1089.32,787.949 1063.87,768.464C1038.47,749.024 988.801,733.591 997.906,705.183C1003.7,686.968 1040.02,667.723 1065.89,656.077C1070.15,654.161 1075.13,654.82 1078.69,657.838C1108.34,682.958 1131.02,721.524 1141.95,767.144C1245.89,839.804 1182.79,936.365 1182.79,936.365L1214.7,936.365C1222.03,936.365 1228.63,939.324 1233.41,944.104C1238.61,949.298 1241.64,956.55 1241.15,964.552Z" style="fill:rgb(196,92,38);fill-rule:nonzero;"/>
        </g>
        <g transform="matrix(0.655852,0,0,0.655852,-256.843219,-210.16114)">
            <path d="M967.039,779.846C993.672,801.744 997.906,835.023 925.246,861.793L925.032,861.872C894.485,873.131 877.227,905.238 884.125,937.054C885.309,942.512 886.622,947.782 888.076,952.806C893.38,971.124 879.445,989.357 860.375,989.357L782.075,989.357C767.962,989.357 755.564,978.766 754.629,964.684C754.094,956.629 757.13,949.327 762.353,944.104C767.132,939.324 773.78,936.365 781.063,936.365L812.978,936.365C812.978,936.365 749.924,839.804 853.77,767.144C873.391,685.515 930.527,626.513 997.906,626.513C1008.56,626.513 1018.95,627.992 1028.98,630.8C1039.8,633.827 1040.79,648.85 1030.6,653.582C1021.96,657.601 1011.22,662.794 997.906,669.49C925.064,706.093 940.406,757.947 967.039,779.846Z" style="fill:rgb(196,92,38);fill-rule:nonzero;"/>
        </g>
    </g>
</svg>
