<?xml version="1.0" encoding="UTF-8" standalone="no"?><!DOCTYPE svg PUBLIC "-//W3C//DTD SVG 1.1//EN" "http://www.w3.org/Graphics/SVG/1.1/DTD/svg11.dtd"><svg width="100%" height="100%" viewBox="0 0 3334 3334" version="1.1" xmlns="http://www.w3.org/2000/svg" xmlns:xlink="http://www.w3.org/1999/xlink" xml:space="preserve" xmlns:serif="http://www.serif.com/" style="fill-rule:evenodd;clip-rule:evenodd;stroke-linejoin:round;stroke-miterlimit:2;"><path d="M2980.892,2130.754c-38.787,60.13 -35.337,61.524 -77.274,112.487c-18.621,22.628 -157.992,191.994 -351.766,102.225c-103.488,-47.942 -142.821,-128.044 -132.88,-55.788c5.132,37.305 -0.528,83.923 16.907,191.644c-15.116,131.892 47.086,325.538 18.231,489.348c-9.78,29.444 -7.281,29.703 -22.995,55.735c-13.148,21.782 -49.521,82.04 -312.035,61.53c-133.256,-10.411 -66.886,-76.221 -58.22,-126.02c6.02,-2.949 5.886,-1.33 10.43,-5.11c37.894,-31.517 39.752,-27.531 88.285,-54.655c4.349,-2.43 31.085,-17.373 39.039,-48.509c4.432,-17.351 -72.645,-914.668 -14.191,-1211.843c28.118,-142.95 187.598,-130.699 391.024,-153.04c515.841,-56.651 533.505,-602.203 289.843,-749.728c-71.665,-43.39 11.238,-60.485 90.839,-31.382c349.653,127.838 348.684,790.69 -113.78,928.367c-19.422,5.782 -12.17,14.723 4.394,26.381c159.689,112.401 187.831,334.942 134.147,468.357l0.002,0.001Zm-462.554,-350.885c5.099,1.114 198.783,12.167 203.364,210.758c5.114,221.642 -300.065,287.624 -310.653,248.827c-2.332,-8.545 -25.584,-437.983 -8.703,-455.454c11.666,-12.073 106.732,-4.836 115.991,-4.131Z" style="fill:#c45c26;"/><path d="M1363.496,2466.058c2.579,-0.768 5.159,-1.536 7.737,-2.304c1.591,-6.723 15.564,-65.791 41.546,-75.708c34.938,-13.336 20.525,39.972 20.464,42.925c-6.046,291.949 425.482,395.746 445.619,124.489c19.512,-262.842 -259.154,-369.092 -388.975,-451.263c-472.088,-298.814 -192.689,-797.004 271.896,-733.423c318.259,43.555 364.436,271.531 223.682,335.679c-121.648,55.44 -363.016,-144.346 -435.436,-4.2c-73.808,142.832 189.13,252.266 221.731,269.008c514.545,264.246 402.421,802.136 187.448,980.959c-80.083,65.788 -188.416,156.198 -604.052,127.235c-35.807,-2.495 -35.951,-62.497 9.217,-116.578c0.922,-1.105 35.877,-58.11 -8.253,-15.982c-14.134,13.494 -45.775,56.046 -43.968,98.475c0.916,21.518 6.85,32.238 -14.743,29.33c-91.255,-12.295 -67.2,-51.327 -49.464,-111.769c126.88,-199.248 300.481,-101.207 252.894,-146.914c-13.057,-12.541 -23.235,-4.413 -101.73,-96.47c-121.868,-142.923 -92.091,-383.873 -89.578,-412.905c7.579,-87.544 26.136,6.121 26.368,8.321c1.318,12.511 16.22,153.989 21.631,155.752c2.399,0.782 3.568,-5.439 5.967,-4.657l0.001,-0.001Z" style="fill:#c45c26;"/><path d="M1077.096,2953.185c-47.094,115.753 -55.826,172.061 -327.81,155.554c-65.034,-3.947 -77.139,-5.769 -83.287,-63.433c53.968,-101.945 63.901,-97.764 173.067,-136.857c19.92,-7.133 69.67,-24.949 98.8,-245.351c25.978,-196.559 -164.927,-312.462 -128.705,-1020.959c0.588,-11.503 13.129,-55.639 -32.492,-21.268c-59.349,44.712 -215.2,201.042 -274.473,12.154c-95.239,-303.505 638.829,-535.924 778.316,-538.261c275.042,-4.608 243.986,212.685 90.611,262.626c-133.756,43.552 -294.943,61.438 -311.462,193.79c-72.29,579.23 152.61,732.501 97.391,1087.473c-31.734,203.999 -66.36,278.642 -79.958,314.531l0.001,0.002Z" style="fill:#c45c26;"/><path d="M1077.096,2953.185c9.135,9.573 7.349,13.376 20.639,12.576c7.134,-0.429 138.193,-2.629 150.211,-2.831c-17.736,60.442 -41.791,99.474 49.464,111.769c21.594,2.91 15.659,-7.811 14.743,-29.33c-1.805,-42.429 29.834,-84.982 43.968,-98.475c44.13,-42.128 9.176,14.878 8.253,15.982c-45.168,54.082 -45.024,114.083 -9.217,116.578c415.636,28.963 523.969,-61.448 604.052,-127.235c4.379,0.746 6.596,6.814 10.976,7.56c31.783,5.414 31.735,-7.253 90.674,2.131c-8.665,49.798 -75.036,115.609 58.22,126.02c262.514,20.511 298.886,-39.747 312.035,-61.53c15.713,-26.031 13.215,-26.292 22.995,-55.735c3.043,1.248 1.803,7.348 4.846,8.594c9.936,4.074 11.106,-7.256 132.898,18.897c9.384,2.015 207.533,62.674 -16.857,118.783c-406.19,101.568 -2507.432,101.505 -2289.606,-69.87c39.776,-31.294 125.944,-28.632 180.206,-51.732c8.238,38.809 14.232,44.856 59.16,51.088c69.684,9.666 92.003,-5.36 98.577,-9.785c19.998,10.487 19.951,9.252 42.665,8.663c6.147,57.663 18.253,59.485 83.287,63.433c271.984,16.507 280.716,-39.8 327.81,-155.554l-0,0.001Z" style="fill:#82422d;fill-opacity:0.29;"/><path d="M939.147,1070.26c-205.546,-197.99 49.589,-643.132 70.525,-671.014c32.861,-43.764 139.891,68.043 215.997,194.572c171.741,285.525 45.759,342.033 0.165,379.666c-207.863,171.567 -264.414,110.089 -286.685,96.776l-0.001,0Z" style="fill:#c45c26;"/><path d="M465.598,2995.341c28.412,-221.982 194.475,-156.633 217.778,-232.079c25.345,-82.055 55.852,-389.4 60.886,-523.237c4.93,-131.052 11.27,-136.358 21.906,-134.114c16.369,3.45 -5.636,23.909 117.538,440.681c6.42,21.724 33.253,112.514 -29.844,281.571c-20.223,54.183 -61.58,40.248 -119.162,71.753c-81.62,44.659 -105.205,124.674 -111.367,136.729c-6.574,4.425 -28.893,19.451 -98.577,9.785c-44.929,-6.233 -50.922,-12.28 -59.16,-51.088l0.001,-0.001Z" style="fill:#82422d;"/><path d="M504.784,1359.832c-9.649,-145.367 -12.441,-144.498 -24.09,-215.709c-70.139,-428.773 -529.385,-459.753 -391.605,-898.314c55.099,-175.384 124.973,-96.225 342.262,13.505c244.293,123.366 289.642,-51.55 527.246,83.936c54.464,31.056 7.13,63.268 -16.446,49.643c-115.82,-66.936 -162.512,-55.27 -268.199,-41.616c-264.399,34.157 -356.818,-145.789 -413.993,-111.224c-124.738,75.41 -129.449,69.937 -133.365,81.826c-38.116,115.708 34.407,205.25 45.68,219.169c121.558,150.086 269.09,118.058 278.134,119.751c54.401,10.176 -18.638,87.534 -159.422,22.146c-14.943,-6.94 -24.269,5.704 -6.132,20.045c42.063,33.259 65.699,63.911 105.182,110.288c240.039,281.946 122.78,733.653 114.747,546.557l0.001,-0.001Z" style="fill:#82422d;"/><path d="M3125.606,610.007c-71.777,-46.914 -87.086,-35.369 -85.729,-55.855c4.3,-64.928 256.704,144.027 215.91,181.736c-27.735,25.638 -7.75,-30.854 -130.181,-125.881Z" style="fill:#82422d;"/><path d="M624.925,498.011c-63.196,4.047 -17.481,-30.668 -15.353,-31.614c123.733,-55.068 183.697,116.284 131.141,113.8c-41,-1.937 4.883,-98.015 -115.788,-82.185l0,-0.001Z" style="fill:#82422d;"/><path d="M3132.925,703.009c83.077,90.632 66.222,104.681 56.751,106.58c-27.417,5.495 -29.316,-82.765 -172.745,-149.641c-29.218,-13.623 -17.201,-36.755 6.382,-28.222c58.857,21.299 96.549,60.074 109.613,71.283l-0.001,0Z" style="fill:#82422d;"/><path d="M3011.906,2351.454c55.151,-65.66 45.517,-82.239 65.694,-78.444c63.95,12.024 -173.654,237.666 -206.222,192.66c-22.142,-30.599 31.559,-4.01 140.528,-114.215Z" style="fill:#82422d;"/><path d="M2918.696,2347.613c-99.906,71.658 -111.841,53.246 -112.595,43.616c-2.181,-27.877 85.673,-19.222 169.201,-153.637c17.015,-27.382 38.546,-12.688 27.257,9.707c-28.176,55.892 -71.175,88.684 -83.864,100.315l0,-0.001Z" style="fill:#82422d;"/></svg>