<?xml version="1.0" encoding="UTF-8" standalone="no"?><!DOCTYPE svg PUBLIC "-//W3C//DTD SVG 1.1//EN" "http://www.w3.org/Graphics/SVG/1.1/DTD/svg11.dtd"><svg width="100%" height="100%" viewBox="0 0 27780 13892" version="1.1" xmlns="http://www.w3.org/2000/svg" xmlns:xlink="http://www.w3.org/1999/xlink" xml:space="preserve" xmlns:serif="http://www.serif.com/" style="fill-rule:evenodd;clip-rule:evenodd;stroke-linejoin:round;stroke-miterlimit:2;"><g><path d="M12232.808,8483.575c-143.233,222.05 -130.492,227.196 -285.358,415.392c-68.763,83.562 -583.433,708.996 -1299.004,377.496c-382.163,-177.042 -527.408,-472.842 -490.7,-206.013c18.95,137.758 -1.95,309.912 62.433,707.704c-55.821,487.05 173.879,1202.15 67.325,1807.067c-36.117,108.729 -26.887,109.687 -84.917,205.817c-48.554,80.437 -182.871,302.958 -1152.283,227.217c-492.088,-38.446 -246.996,-281.471 -214.996,-465.367c22.229,-10.892 21.738,-4.913 38.517,-18.871c139.933,-116.388 146.796,-101.667 326.021,-201.829c16.058,-8.975 114.792,-64.154 144.163,-179.133c16.367,-64.075 -268.262,-3377.692 -52.404,-4475.1c103.833,-527.887 692.762,-482.646 1443.975,-565.146c1904.9,-209.2 1970.129,-2223.817 1070.333,-2768.6c-264.646,-160.229 41.5,-223.358 335.45,-115.887c1291.2,472.079 1287.621,2919.863 -420.167,3428.279c-71.721,21.35 -44.942,54.371 16.225,97.421c589.7,415.075 693.625,1236.875 495.379,1729.55l0.008,0.004Zm-1708.121,-1295.75c18.829,4.113 734.067,44.929 750.983,778.287c18.883,818.479 -1108.083,1062.137 -1147.179,918.871c-8.613,-31.554 -94.475,-1617.388 -32.138,-1681.904c43.079,-44.583 394.142,-17.858 428.333,-15.254Z" style="fill:#c45c26;"/><path d="M6260.083,9721.788c9.525,-2.838 19.05,-5.671 28.571,-8.508c5.875,-24.825 57.475,-242.954 153.421,-279.575c129.021,-49.246 75.796,147.608 75.571,158.513c-22.325,1078.112 1571.221,1461.413 1645.583,459.713c72.054,-970.625 -957.004,-1362.983 -1436.408,-1666.425c-1743.329,-1103.463 -711.562,-2943.179 1004.058,-2708.387c1175.267,160.842 1345.792,1002.712 826.012,1239.596c-449.221,204.729 -1340.546,-533.042 -1607.979,-15.508c-272.558,527.45 698.421,931.571 818.808,993.396c1900.113,975.808 1486.062,2962.133 692.208,3622.492c-295.729,242.942 -695.783,576.808 -2230.646,469.854c-132.229,-9.212 -132.758,-230.788 34.038,-430.5c3.404,-4.079 132.488,-214.588 -30.475,-59.017c-52.196,49.829 -169.037,206.967 -162.367,363.65c3.383,79.462 25.296,119.05 -54.442,108.308c-336.988,-45.404 -248.158,-189.542 -182.663,-412.742c468.542,-735.783 1109.617,-373.738 933.888,-542.525c-48.217,-46.312 -85.804,-16.296 -375.671,-356.246c-450.033,-527.787 -340.075,-1417.567 -330.796,-1524.779c27.988,-323.283 96.517,22.604 97.371,30.729c4.867,46.2 59.896,568.65 79.879,575.163c8.858,2.888 13.175,-20.083 22.033,-17.196l0.004,-0.004Z" style="fill:#c45c26;"/><path d="M5202.462,11520.654c-173.908,427.454 -206.154,635.387 -1210.537,574.429c-240.158,-14.575 -284.858,-21.304 -307.562,-234.246c199.292,-376.463 235.975,-361.025 639.104,-505.388c73.562,-26.342 257.279,-92.133 364.85,-906.033c95.933,-725.854 -609.042,-1153.863 -475.283,-3770.204c2.171,-42.479 48.483,-205.462 -119.988,-78.538c-219.162,165.113 -794.692,742.408 -1013.575,44.883c-351.7,-1120.783 2359.071,-1979.063 2874.171,-1987.692c1015.675,-17.017 900.992,785.404 334.608,969.825c-493.933,160.829 -1089.167,226.879 -1150.167,715.629c-266.954,2138.983 563.558,2704.983 359.646,4015.825c-117.188,753.329 -245.054,1028.971 -295.271,1161.5l0.004,0.008Z" style="fill:#c45c26;"/><path d="M5202.462,11520.654c33.733,35.35 27.137,49.396 76.217,46.442c26.346,-1.583 510.321,-9.708 554.7,-10.454c-65.496,223.2 -154.325,367.337 182.663,412.742c79.742,10.746 57.825,-28.846 54.442,-108.308c-6.667,-156.683 110.171,-313.821 162.367,-363.65c162.963,-155.571 33.883,54.942 30.475,59.017c-166.796,199.712 -166.267,421.287 -34.038,430.5c1534.863,106.954 1934.917,-226.917 2230.646,-469.854c16.171,2.754 24.358,25.163 40.533,27.917c117.367,19.992 117.192,-26.783 334.842,7.871c-32,183.896 -277.092,426.921 214.996,465.367c969.413,75.742 1103.729,-146.779 1152.283,-227.217c58.025,-96.129 48.8,-97.092 84.917,-205.817c11.238,4.608 6.658,27.133 17.896,31.738c36.692,15.046 41.012,-26.796 490.767,69.783c34.654,7.442 766.379,231.442 -62.25,438.642c-1499.979,375.071 -9259.458,374.837 -8455.067,-258.017c146.883,-115.563 465.087,-105.733 665.467,-191.038c30.421,143.312 52.554,165.646 218.467,188.658c257.329,35.696 339.75,-19.792 364.025,-36.133c73.85,38.725 73.675,34.167 157.554,31.992c22.7,212.938 67.404,219.667 307.562,234.246c1004.383,60.958 1036.629,-146.975 1210.537,-574.429l-0,0.004Z" style="fill:#82422d;fill-opacity:0.29;"/><path d="M4693.046,4567.379c-759.042,-731.138 183.121,-2374.963 260.433,-2477.925c121.35,-161.612 516.592,251.271 797.633,718.517c634.204,1054.387 168.979,1263.062 0.608,1402.033c-767.596,633.562 -976.429,406.537 -1058.671,357.375l-0.004,0Z" style="fill:#c45c26;"/><path d="M16144.329,7997.292c-70.583,1082.138 -1664.108,862.287 -1897.258,300.208c-128.846,-310.613 112.858,-793.479 256.35,-420.896c393.442,1021.579 1365.583,542.717 1038.317,128.083c-221.683,-280.858 -1406.142,-328.133 -1251.812,-1111.908c203.529,-1033.646 1972.546,-618.962 1708.746,119.263c-42.321,118.433 -247.558,279.633 -346.154,0.921c-51.246,-144.863 -124.95,-481.596 -530.521,-484.783c-281.775,-2.212 -610.954,404 62.533,668.704c462.775,181.888 909.15,213.583 959.808,800.408l-0.008,0Z" style="fill:#c45c26;"/><path d="M2944.321,11676.325c104.921,-819.738 718.158,-578.417 804.213,-857.021c93.596,-303.013 206.25,-1437.979 224.842,-1932.213c18.204,-483.95 41.617,-503.542 80.896,-495.258c60.446,12.742 -20.812,88.292 434.046,1627.35c23.708,80.221 122.796,415.492 -110.208,1039.788c-74.679,200.088 -227.404,148.629 -440.042,264.971c-301.408,164.917 -388.5,460.396 -411.258,504.913c-24.275,16.342 -106.696,71.829 -364.025,36.133c-165.912,-23.017 -188.046,-45.346 -218.467,-188.658l0.004,-0.004Z" style="fill:#82422d;"/><path d="M21712.383,7033.483c54.633,-8.262 354.775,-83.754 636.312,118.329c207.396,148.867 228.742,377.758 232.279,415.688c13.15,140.996 -22.029,161.938 -625.921,386.738c-192.779,71.762 -373.725,95.988 -264.4,221.604c371.975,427.408 801.871,-18.692 852.142,-13.992c228.55,21.371 -57.237,443.042 -368.079,541.308c-1241.858,392.587 -1604.558,-1433.142 -462.333,-1669.679l0,0.004Zm124.442,208.767c294.3,50.158 355.717,324.517 179.858,408.771c-432.567,207.238 -453.525,191.683 -473.75,157.254c-4.304,-7.329 -49.263,-273.208 63.15,-445.112c64.054,-97.95 210.096,-118.067 230.742,-120.908l0,-0.004Z" style="fill:#c45c26;"/><path d="M26405.104,7109.821c248.458,162.917 460.3,544.125 122.487,670.108c-739.813,275.904 -773.421,278.217 -755.625,336.996c28.787,95.063 371.954,428.183 776.1,111.804c12.479,-9.771 188.833,-147.825 197.629,13.804c19.054,350.163 -962.85,864.542 -1470.862,151.15c-431.592,-606.075 182.6,-1728.558 1130.267,-1283.867l0.004,0.004Zm-755.396,610.717c-0.108,-703.858 487.154,-479.154 557.146,-299.35c88.2,226.579 -138.967,258.825 -317.946,340.079c-148.275,67.317 -216.529,118.637 -239.2,-40.729Z" style="fill:#c45c26;"/><path d="M3089.025,5636.712c-35.633,-536.812 -45.942,-533.604 -88.958,-796.571c-259.008,-1583.375 -1954.917,-1697.779 -1446.121,-3317.3c203.471,-647.658 461.5,-355.342 1263.908,49.871c902.125,455.567 1069.592,-190.362 1947.017,309.958c201.125,114.683 26.329,233.638 -60.733,183.321c-427.7,-247.183 -600.125,-204.1 -990.408,-153.679c-976.375,126.133 -1317.658,-538.371 -1528.796,-410.729c-460.633,278.475 -478.029,258.263 -492.492,302.167c-140.754,427.287 127.058,757.95 168.688,809.35c448.892,554.238 993.696,435.967 1027.096,442.217c200.892,37.579 -68.825,323.246 -588.712,81.779c-55.183,-25.629 -89.621,21.062 -22.646,74.021c155.329,122.821 242.612,236.013 388.417,407.271c886.417,1041.171 453.404,2709.238 423.737,2018.329l0.004,-0.004Z" style="fill:#82422d;"/><path d="M19576.021,7239.113c636.271,-498.833 1177.608,-117.712 1270.104,269.721c56.625,237.183 -89.475,246.042 -728.192,483.371c-163.142,60.621 -263.271,88.188 -136.587,205.946c434.921,404.292 759.446,-59.029 842.279,-37.154c201.413,53.192 -82.133,405.05 -280.6,498.271c-913.058,428.863 -1694.629,-657.95 -967,-1420.154l-0.004,0Zm219.667,420.642c49.696,-639.529 567.471,-423.583 589.146,-152.1c3.867,48.442 11.646,145.883 -512.037,326.821c-56.321,19.458 -75.479,-159.529 -77.104,-174.721l-0.004,0Z" style="fill:#c45c26;"/><path d="M17237.683,7304.413c-202.125,6.963 -237.246,-35.083 -254.596,46.142c-13.004,60.887 -2.963,821.062 -1.033,832.508c68.433,406.171 525.633,99.483 531.171,99.663c235.042,7.667 -87.983,485.763 -520.667,472.862c-966.292,-28.812 -291.604,-1402.017 -645.421,-1449.596c-410.246,-55.167 107.188,-419.171 451.492,-671.221c251.333,-183.992 172.458,142.875 180.108,351.375c6.208,169.204 502.683,-20.617 524.267,154.446c24.2,196.287 -66.812,161.692 -265.325,163.821l0.004,0Z" style="fill:#c45c26;"/><path d="M23615.717,7304.479c-122.938,8.508 -183.383,-43.742 -185.971,79.55c-18.008,857.529 14.858,892.104 67.192,947.167c205.342,216.05 490.525,-172.15 542.312,5.775c93.533,321.337 -984.2,723.612 -1119.667,26.383c-52.263,-268.988 73.037,-1007.317 -97.833,-1052.642c-14.454,-3.833 -210.696,18.3 -157.733,-172.258c25.242,-90.812 656.158,-619.6 737.263,-551.917c74.017,61.767 -37.492,465.771 90.938,469.013c173.508,4.375 511.154,-66.125 455.929,174.012c-24.958,108.529 -298.404,74.592 -332.429,74.917Z" style="fill:#c45c26;"/><path d="M18892.775,7568.921c-139.642,-158.688 -179.237,-144.25 -185.2,-145.212c-335.183,-54.196 -274.946,529.754 -273.058,818.967c2.017,309.454 213.092,242.746 248.417,335.562c65.154,171.196 -119.138,145.483 -863.079,137.438c-165.283,-1.788 -150.954,-137.792 -58.142,-191.792c197.971,-115.179 159.188,-165.892 160.963,-925.058c0.554,-236.55 -176.025,-179.383 -217.492,-278.592c-20.85,-49.879 -40.088,-132.708 608.5,-293.892c218.513,-54.304 40.842,444.542 154.621,272.558c16.429,-24.833 143.317,-216.629 270.925,-255.196c657.204,-198.637 594.704,811.3 153.55,525.225l-0.004,-0.008Z" style="fill:#c45c26;"/><path d="M14586.542,9929.292c-7.967,-361.246 2.208,-385.121 -6.817,-461.837c-17.121,-145.521 -189.662,-93.379 -169.079,-184.312c12.583,-55.579 39.108,-40.775 711.429,-36.008c591.971,4.2 569.521,548.563 387.2,700.788c-286.413,239.133 -629.442,57.917 -643.433,194.529c-37.779,368.812 67.992,398.529 100.321,407.613c229.442,64.462 11.296,110.971 2.417,110.983c-58.612,0.075 -863.142,37.363 -460.387,-119.733c75.733,-29.542 78.804,-51.808 78.35,-612.021Zm443.196,-568.933c434.946,48.092 373.975,581.325 30.721,594.492c-15.062,0.579 -173.896,6.671 -186.925,-23.838c-0.1,-0.237 -43.433,-522.354 32.067,-556.558c9.104,-4.125 9.196,-1.046 124.133,-14.1l0.004,0.004Z" style="fill:#82422d;"/><path d="M24883.246,8058.658c1.762,238.254 -44.821,340.137 170.521,466.004c116.075,67.846 85.821,190.458 -57.938,191.025c-708.158,2.804 -932.371,32.133 -849.146,-131.413c50.887,-100 210.396,-54.975 214.238,-310.871c11.75,-782.842 -4.133,-797.992 -53.133,-844.725c-0.088,-0.083 -264.729,-101 -130.904,-217.421c16.533,-14.383 574.458,-200.212 632.917,-185.583c86.712,21.704 71.996,59.154 73.438,1032.979l0.008,0.004Z" style="fill:#c45c26;"/><path d="M17145.758,10677.838c-948.375,-47.721 -481.517,-1311.346 248.829,-939.604c322.713,164.258 392.479,897.575 -248.829,939.604Zm203.504,-594.533c1.846,51.05 53.079,426.925 -174.079,483.938c-401.517,100.771 -334.688,-1051.987 53.304,-748.821c76.75,59.971 115.883,242.117 120.775,264.887l0,-0.004Z" style="fill:#82422d;"/><path d="M18802.608,10156.329c-115.113,18.179 -332.508,-9.446 -177.583,227.679c167.288,256.054 524.279,-17.475 538.863,-12.483c167.533,57.321 -372.35,545.3 -750.608,160.663c-377.617,-383.983 139.979,-1120.829 626.383,-777.829c84.229,59.396 261.692,356.183 37.333,379.133c-21.912,2.242 -20.325,1.692 -274.387,22.833l-0,0.004Zm-32.6,-114.542c-131.796,12.229 -250.833,53.354 -190.221,-114.975c130.338,-361.971 478.062,63.021 285.067,101.233c-31.338,6.204 -63.508,7.538 -94.842,13.742l-0.004,0Z" style="fill:#82422d;"/><path d="M15771.404,5360.288c1.112,-492.708 -1.817,-519.829 -1.875,-521.396c-3.958,-111.587 -90.712,-120.463 -94.704,-123.562c-82.904,-64.396 148.404,-94.512 245.929,-113.279c36.188,-6.963 120.333,-7.346 75.833,454.363c-4.854,50.371 9.196,72.408 48.975,41.671c226.487,-175.008 508.125,-65.096 514.604,231.629c7.062,323.579 -51.925,370.808 88.954,466.625c145.846,99.196 -612.737,129.929 -369.338,-17.733c67.158,-40.742 123.692,-603.554 -85.833,-623.083c-253.929,-23.667 -196.592,378.392 -195.05,511.783c1.708,147.85 100.671,100.825 109.454,151.575c5.529,31.946 -5.687,71.396 -402.046,51.125c-7.788,-0.4 -121.017,-28.887 19.663,-95.471c65.433,-30.971 45.333,-278.617 45.433,-414.246Z" style="fill:#82422d;"/><path d="M14938.042,5868.529c-21.125,0.108 -251.875,1.308 -262.925,-24.312c-2.425,-5.625 -20.283,-47.029 46.667,-60.725c184.179,-37.688 152.517,-95.683 152.35,-361.858c-0.375,-597.325 16.042,-650.283 -57.125,-654.696c-351.908,-21.229 -285.421,191.125 -347.142,246.637c-95.833,86.187 -73.646,-261.646 -44.533,-323.571c37.021,-78.738 1112.521,-32.446 1120.138,-26.3c52.204,42.096 45.817,323.254 43.979,331.187c-35.3,152.596 -139.779,-140.367 -170.204,-177.683c-53.675,-65.825 -246.417,-52.446 -269.029,-44.462c-62.875,22.192 -38.067,49.617 -30.763,832.867c2.208,236.867 184.483,122.646 196.65,212.613c10.6,78.35 -262.371,51.75 -378.067,50.304l0.004,0Z" style="fill:#82422d;"/><path d="M24987.967,6673.25c-394.587,387.175 -522.621,195.783 -650.029,81.721c-331.329,-296.617 -72.55,-770.504 269.392,-486.071c46.379,38.579 316.283,-139.992 416.504,73.917c72.733,155.238 -21.854,307.833 -35.867,330.433Z" style="fill:#c45c26;"/><path d="M17422.829,5405.142c-207.071,27.825 -444.117,25.8 -443.504,108.808c1.046,141.4 239.025,338.521 440.633,150.792c62.021,-57.75 113.108,2.021 51.163,84.142c-203.242,269.429 -813.283,140.225 -725.475,-388.8c75.883,-457.167 745.517,-455.179 759.812,-29.946c2.779,82.633 -73.5,73.046 -82.629,75.004Zm-216.304,-82.075c-162.1,8.004 -276.013,66.967 -219.808,-87.525c18.083,-49.713 73.717,-138.967 188.8,-116.521c58.092,11.329 215.546,177.508 31.008,204.046Z" style="fill:#82422d;"/><path d="M17841.454,10450.462c1.738,-379.125 19.467,-550.004 -49.683,-586.033c-167.733,-87.4 -44.812,-123.325 -34.654,-125.683c263.679,-61.263 340.05,-88.533 348.263,5.646c2.604,29.883 4.267,982.029 2.625,1013.217c-18.696,355.371 -306.538,401.296 -411.283,371.625c-216.458,-61.317 -74.279,-287.192 51.533,-174.75c131.471,117.5 94.396,-148.746 93.2,-504.021Z" style="fill:#82422d;"/><path d="M19556.308,10113.292c2.979,16.271 13.95,401.175 349.821,375.15c171.633,-13.296 277.862,-200.817 282.283,-69.417c8.758,260.317 -811.346,454.396 -885.912,-153.758c-85.721,-699.112 897.7,-719.646 870.096,-336.996c-4.058,56.267 -157.996,242.917 -246.975,-26.846c-5.833,-17.683 -55.792,-169.15 -208.017,-104.396c-150.225,63.904 -153.637,269.375 -161.296,316.258l0,0.004Z" style="fill:#82422d;"/><path d="M20887.433,9701.438c167.496,37.825 49.217,110.7 -0.633,110.833c-178.137,0.483 -197.779,-29.312 -218.471,22.763c-6.4,16.108 -23.867,544.067 15.929,608.813c99.55,161.962 328.338,-92.454 295.962,68.254c-23.296,115.629 -583.867,398.121 -585.212,-184.329c-0.812,-352.712 31.479,-511.017 -60.329,-520.725c-241.946,-25.579 56.896,-147.733 138.246,-257.804c250.796,-339.35 171.45,104.829 198.754,134.921c10.421,11.488 34.804,17.333 215.758,17.271l-0.004,0.004Z" style="fill:#82422d;"/><path d="M16111.821,10113.121c-0.829,319.45 -45.017,390.367 117.35,451.717c56.342,21.288 77.062,96.913 -34.033,96.996c-137.679,0.104 -592.337,29.783 -457.95,-86.379c39.721,-34.333 115.638,-5.512 118.812,-155.704c10.954,-518.75 -17.967,-534.317 -57.304,-555.488c-255.254,-137.392 286.542,-215.121 304.742,-149.867c2.071,7.425 -13.179,173.179 66.396,68.375c222.812,-293.463 574.6,106.092 299.167,200.4c-125.196,42.867 -215.729,-245.579 -332.517,-21.704c-21.596,41.396 -13.875,42.842 -24.658,151.654l-0.004,0Z" style="fill:#82422d;"/><path d="M12767.212,2867.754c-265.058,-173.246 -321.592,-130.612 -316.579,-206.263c15.879,-239.767 947.958,531.863 797.312,671.117c-102.421,94.675 -28.621,-113.938 -480.733,-464.854Z" style="fill:#82422d;"/><path d="M3532.683,2454.175c-233.371,14.946 -64.554,-113.25 -56.696,-116.746c456.921,-203.354 678.358,429.412 484.279,420.242c-151.404,-7.154 18.033,-361.95 -427.583,-303.492l0,-0.004Z" style="fill:#82422d;"/><path d="M12794.238,3211.192c306.788,334.688 244.546,386.567 209.571,393.579c-101.246,20.292 -108.258,-305.633 -637.913,-552.596c-107.896,-50.308 -63.521,-135.729 23.567,-104.217c217.346,78.654 356.537,221.842 404.779,263.233l-0.004,0Z" style="fill:#82422d;"/><path d="M12347.338,9298.578c203.662,-242.47 168.085,-303.691 242.595,-289.679c236.154,44.401 -641.271,877.653 -761.536,711.454c-81.765,-112.995 116.54,-14.808 518.941,-421.775Z" style="fill:#82422d;"/><path d="M12003.131,9284.393c-368.932,264.62 -413.006,196.628 -415.791,161.066c-8.055,-102.945 316.375,-70.982 624.827,-567.35c62.834,-101.115 142.344,-46.856 100.656,35.845c-104.049,206.397 -262.835,327.491 -309.692,370.444l0,-0.004Z" style="fill:#82422d;"/><path d="M17807.496,9377.479c28.529,-252.596 243.521,-132.317 256.383,-120.95c196.921,174.025 -205.371,455.062 -256.383,120.95Z" style="fill:#82422d;"/></g></svg>